<svg xmlns="http://www.w3.org/2000/svg" viewBox="0 0 64 64" width="64" height="64">
  <defs>
    <linearGradient id="smilecare" x1="0" y1="0" x2="1" y2="1">
      <stop offset="0" stop-color="#3959da" />
      <stop offset="0.5" stop-color="#8f54dc" />
      <stop offset="1" stop-color="#ea5da9" />
    </linearGradient>
  </defs>
  <rect x="0" y="0" width="64" height="64" rx="14" fill="url(#smilecare)" />
  <g transform="translate(23.6 24.7)">
    <path
      d="M12 6.2c1.6-1.4 3.2-2 4.7-1.8 2.3.3 3.6 2.2 3.6 4.9 0 3.3-1.3 6.6-2.4 8.6-.7 1.3-1.4 2-2.2 2-1 0-1.5-.7-2-2l-.9-2.4c-.2-.6-.6-.9-.8-.9s-.6.3-.8.9l-.9 2.4c-.5 1.3-1 2-2 2-.8 0-1.5-.7-2.2-2C4.9 15.9 3.7 12.6 3.7 9.3c0-2.7 1.3-4.6 3.6-4.9C8.8 4.2 10.4 4.8 12 6.2Z"
      fill="#ffffff" fill-opacity="0.98"
    />
    <path
      d="M9 11c.9.8 1.9 1.2 3 1.2S14.1 11.8 15 11"
      stroke="#3959da" stroke-width="1.4" stroke-linecap="round" fill="none"
    />
  </g>
</svg>